Radio-Canada-Light-slant-14.ufo
<glyph name="numbersign" format="1">
  <advance width="652"/>
  <unicode hex="0023"/>
  <outline>
    <contour>
      <point x="127.35888059706795" y="210.0" type="line"/>
      <point x="576.3588805970679" y="210.0" type="line"/>
      <point x="589.8225927505997" y="264.0" type="line"/>
      <point x="140.8225927505997" y="264.0" type="line"/>
    </contour>
    <contour>
      <point x="110.0" y="0.0" type="line"/>
      <point x="168.0" y="0.0" type="line"/>
      <point x="509.03632196179467" y="690.0" type="line"/>
      <point x="451.03632196179467" y="690.0" type="line"/>
    </contour>
    <contour>
      <point x="234.213729211195" y="426.0" type="line"/>
      <point x="683.213729211195" y="426.0" type="line"/>
      <point x="696.6774413647267" y="480.0" type="line"/>
      <point x="247.67744136472675" y="480.0" type="line"/>
    </contour>
    <contour>
      <point x="315.0" y="0.0" type="line"/>
      <point x="373.0" y="0.0" type="line"/>
      <point x="714.0363219617947" y="690.0" type="line"/>
      <point x="656.0363219617947" y="690.0" type="line"/>
    </contour>
  </outline>
</glyph>
<glyph name="dollar" format="1">
  <advance width="660"/>
  <unicode hex="0024"/>
  <outline>
    <contour>
      <point x="106.9408642501999" y="88.0" type="line"/>
      <point x="152.4825280739227" y="26.0"/>
      <point x="225.00537597725454" y="-8.0"/>
      <point x="328.0053759772546" y="-8.0" type="curve"/>
      <point x="475.0053759772546" y="-8.0"/>
      <point x="586.9543041933363" y="68.0"/>
      <point x="614.131056503243" y="177.0" type="curve"/>
      <point x="636.3212487562861" y="266.0"/>
      <point x="588.7742089553087" y="336.0"/>
      <point x="440.48993710031095" y="387.0" type="curve" smooth="yes"/>
      <point x="322.71238521688133" y="428.0"/>
      <point x="296.1868493249222" y="466.0"/>
      <point x="310.1492174841403" y="522.0" type="curve"/>
      <point x="326.60486567179026" y="588.0"/>
      <point x="402.56723383100837" y="644.0"/>
      <point x="504.56723383100837" y="644.0" type="curve"/>
      <point x="577.5672338310084" y="644.0"/>
      <point x="621.5860497513993" y="616.0"/>
      <point x="651.6129296376721" y="576.0" type="curve"/>
      <point x="701.0820177684584" y="622.0" type="line"/>
      <point x="662.0497619049311" y="670.0"/>
      <point x="605.0309459845402" y="698.0"/>
      <point x="518.0309459845402" y="698.0" type="curve"/>
      <point x="383.03094598454015" y="698.0"/>
      <point x="274.3367217485561" y="615.0"/>
      <point x="250.40123347561078" y="519.0" type="curve"/>
      <point x="229.95633724246997" y="437.0"/>
      <point x="268.2459850747223" y="378.0"/>
      <point x="402.5275689410928" y="331.0" type="curve" smooth="yes"/>
      <point x="542.3104968017769" y="282.0"/>
      <point x="567.0934246624611" y="233.0"/>
      <point x="551.8844164890271" y="172.0" type="curve"/>
      <point x="534.1821282871613" y="101.0"/>
      <point x="457.4690881307863" y="46.0"/>
      <point x="341.4690881307863" y="46.0" type="curve"/>
      <point x="252.4690881307863" y="46.0"/>
      <point x="195.4475842217681" y="78.0"/>
      <point x="157.66196837245667" y="131.0" type="curve"/>
    </contour>
    <contour>
      <point x="289.0671997156819" y="-100.0" type="line"/>
      <point x="345.0671997156819" y="-100.0" type="line"/>
      <point x="455.76883297805415" y="344.0" type="line"/>
      <point x="404.25673702923143" y="362.0" type="line"/>
    </contour>
    <contour>
      <point x="404.25673702923143" y="362.0" type="line"/>
      <point x="455.76883297805415" y="344.0" type="line"/>
      <point x="566.9691222461128" y="790.0" type="line"/>
      <point x="510.96912224611276" y="790.0" type="line"/>
    </contour>
  </outline>
</glyph>
<glyph name="quotesingle" format="1">
  <advance width="206"/>
  <unicode hex="0027"/>
  <outline>
    <contour>
      <point x="249.51616204709012" y="720.0" type="line"/>
      <point x="205.66400142159034" y="500.0" type="line"/>
      <point x="250.66400142159034" y="500.0" type="line"/>
      <point x="315.5161620470901" y="720.0" type="line"/>
    </contour>
  </outline>
</glyph>
<glyph name="parenleft" format="1">
  <advance width="330"/>
  <unicode hex="0028"/>
  <outline>
    <contour>
      <point x="156.81990476197242" y="268.0" type="curve" smooth="yes"/>
      <point x="101.46908813078632" y="46.0"/>
      <point x="159.8232476900933" y="-109.0"/>
      <point x="259.9038873489116" y="-229.0" type="curve"/>
      <point x="296.38103944557975" y="-195.0" type="line"/>
      <point x="210.05644776117282" y="-84.0"/>
      <point x="162.9543041933363" y="68.0"/>
      <point x="212.81990476197242" y="268.0" type="curve" smooth="yes"/>
      <point x="262.6855053306086" y="468.0"/>
      <point x="385.33403375992884" y="619.0"/>
      <point x="527.009442075522" y="730.0" type="curve"/>
      <point x="507.48659417219005" y="764.0" type="line"/>
      <point x="347.56723383100837" y="644.0"/>
      <point x="212.17072139315854" y="490.0"/>
    </contour>
  </outline>
</glyph>
<glyph name="zero" format="1">
  <advance width="660"/>
  <unicode hex="0030"/>
  <outline>
    <contour>
      <point x="163.01816098089733" y="345.0" type="curve" smooth="yes"/>
      <point x="102.93011229569079" y="104.0"/>
      <point x="193.00537597725454" y="-8.0"/>
      <point x="328.0053759772546" y="-8.0" type="curve" smooth="yes"/>
      <point x="463.0053759772546" y="-8.0"/>
      <point x="608.9301122956908" y="104.0"/>
      <point x="669.0181609808974" y="345.0" type="curve" smooth="yes"/>
      <point x="729.106209666104" y="586.0"/>
      <point x="639.0309459845402" y="698.0"/>
      <point x="504.03094598454015" y="698.0" type="curve" smooth="yes"/>
      <point x="369.03094598454015" y="698.0"/>
      <point x="223.1062096661039" y="586.0"/>
    </contour>
    <contour>
      <point x="227.01816098089733" y="345.0" type="curve" smooth="yes"/>
      <point x="278.87838557227894" y="553.0"/>
      <point x="381.9659889529136" y="641.0"/>
      <point x="489.8192498224788" y="641.0" type="curve" smooth="yes"/>
      <point x="597.672510692044" y="641.0"/>
      <point x="656.878385572279" y="553.0"/>
      <point x="605.0181609808974" y="345.0" type="curve" smooth="yes"/>
      <point x="553.1579363895157" y="137.0"/>
      <point x="450.0703330088811" y="49.0"/>
      <point x="342.21707213931586" y="49.0" type="curve" smooth="yes"/>
      <point x="234.36381126975064" y="49.0"/>
      <point x="175.15793638951575" y="137.0"/>
    </contour>
  </outline>
</glyph>
<glyph name="three" format="1">
  <advance width="660"/>
  <unicode hex="0033"/>
  <outline>
    <contour>
      <point x="108.94355223882718" y="84.0" type="line"/>
      <point x="152.73454406539315" y="23.0"/>
      <point x="216.00537597725454" y="-8.0"/>
      <point x="305.0053759772546" y="-8.0" type="curve"/>
      <point x="436.0053759772546" y="-8.0"/>
      <point x="565.2036321961795" y="69.0"/>
      <point x="598.3642565743226" y="202.0" type="curve"/>
      <point x="630.5275689410928" y="331.0"/>
      <point x="533.7338891258996" y="396.0"/>
      <point x="416.73388912589957" y="396.0" type="curve" smooth="yes"/>
      <point x="367.73388912589957" y="396.0" type="line"/>
      <point x="311.7419530917814" y="384.0" type="line"/>
      <point x="301.51950497521096" y="343.0" type="line"/>
      <point x="380.51950497521096" y="343.0" type="line" smooth="yes"/>
      <point x="488.51950497521096" y="343.0"/>
      <point x="556.8037768302088" y="292.0"/>
      <point x="534.3642565743226" y="202.0" type="curve"/>
      <point x="510.42876830137715" y="106.0"/>
      <point x="420.9677441364727" y="48.0"/>
      <point x="318.9677441364727" y="48.0" type="curve"/>
      <point x="246.96774413647267" y="48.0"/>
      <point x="195.4475842217681" y="78.0"/>
      <point x="163.66465636108396" y="127.0" type="curve"/>
    </contour>
    <contour>
      <point x="263.07395380257657" y="634.0" type="line"/>
      <point x="633.0739538025766" y="634.0" type="line"/>
      <point x="685.5645458423811" y="648.0" type="line"/>
      <point x="696.0363219617947" y="690.0" type="line"/>
      <point x="277.03632196179467" y="690.0" type="line"/>
    </contour>
    <contour>
      <point x="311.7419530917814" y="384.0" type="line"/>
      <point x="386.7419530917814" y="384.0" type="line"/>
      <point x="685.5645458423811" y="648.0" type="line"/>
      <point x="657.0363219617947" y="690.0" type="line"/>
    </contour>
  </outline>
</glyph>
<glyph name="five" format="1">
  <advance width="660"/>
  <unicode hex="0035"/>
  <outline>
    <contour>
      <point x="120.94355223882718" y="84.0" type="line"/>
      <point x="164.73454406539315" y="23.0"/>
      <point x="228.00537597725454" y="-8.0"/>
      <point x="317.0053759772546" y="-8.0" type="curve" smooth="yes"/>
      <point x="448.0053759772546" y="-8.0"/>
      <point x="576.7049761904931" y="67.0"/>
      <point x="610.8629125800089" y="204.0" type="curve"/>
      <point x="644.2728649609951" y="338.0"/>
      <point x="556.7177611941358" y="420.0"/>
      <point x="440.7177611941359" y="420.0" type="curve"/>
      <point x="384.7177611941359" y="420.0"/>
      <point x="326.9778411514882" y="405.0"/>
      <point x="268.9993450605064" y="373.0" type="curve"/>
      <point x="247.03697690128828" y="317.0" type="line"/>
      <point x="300.0154729922701" y="349.0"/>
      <point x="354.7553930349178" y="364.0"/>
      <point x="410.7553930349178" y="364.0" type="curve"/>
      <point x="513.7553930349178" y="364.0"/>
      <point x="571.2970568586405" y="302.0"/>
      <point x="546.8629125800089" y="204.0" type="curve"/>
      <point x="521.9301122956908" y="104.0"/>
      <point x="432.9677441364727" y="48.0"/>
      <point x="330.9677441364727" y="48.0" type="curve" smooth="yes"/>
      <point x="258.9677441364727" y="48.0"/>
      <point x="207.4475842217681" y="78.0"/>
      <point x="175.66465636108396" y="127.0" type="curve"/>
    </contour>
    <contour>
      <point x="222.2728649609951" y="338.0" type="line"/>
      <point x="247.03697690128828" y="317.0" type="line"/>
      <point x="275.5221929638383" y="339.0" type="line"/>
      <point x="387.03632196179467" y="690.0" type="line"/>
      <point x="333.03632196179467" y="690.0" type="line"/>
    </contour>
    <contour>
      <point x="341.03632196179467" y="690.0" type="line"/>
      <point x="357.07395380257657" y="634.0" type="line"/>
      <point x="674.0739538025766" y="634.0" type="line"/>
      <point x="688.0363219617947" y="690.0" type="line"/>
    </contour>
  </outline>
</glyph>
<glyph name="seven" format="1">
  <advance width="660"/>
  <unicode hex="0037"/>
  <outline>
    <contour>
      <point x="256.5779857855175" y="628.0" type="line"/>
      <point x="641.5779857855175" y="628.0" type="line"/>
      <point x="695.5645458423811" y="648.0" type="line"/>
      <point x="706.0363219617947" y="690.0" type="line"/>
      <point x="272.03632196179467" y="690.0" type="line"/>
    </contour>
    <contour>
      <point x="220.0" y="0.0" type="line"/>
      <point x="288.0" y="0.0" type="line"/>
      <point x="695.5645458423811" y="648.0" type="line"/>
      <point x="662.0363219617947" y="690.0" type="line"/>
    </contour>
  </outline>
</glyph>
<glyph name="eight" format="1">
  <advance width="660"/>
  <unicode hex="0038"/>
  <outline>
    <contour>
      <point x="140.88441648902707" y="172.0" type="curve"/>
      <point x="162.32662473354063" y="258.0"/>
      <point x="241.27824093824964" y="330.0"/>
      <point x="366.5060650320746" y="363.0" type="curve"/>
      <point x="400.0235369581519" y="337.0" type="line"/>
      <point x="286.2970568586406" y="302.0"/>
      <point x="214.09073667383382" y="237.0"/>
      <point x="199.38038450608616" y="178.0" type="curve"/>
      <point x="180.68078429284762" y="103.0"/>
      <point x="234.4690881307863" y="46.0"/>
      <point x="337.4690881307863" y="46.0" type="curve" smooth="yes"/>
      <point x="455.4690881307863" y="46.0"/>
      <point x="528.4287683013772" y="106.0"/>
      <point x="544.1364324804975" y="169.0" type="curve" smooth="yes"/>
      <point x="559.8440966596179" y="232.0"/>
      <point x="533.0611687989337" y="281.0"/>
      <point x="403.5275689410928" y="331.0" type="curve" smooth="yes"/>
      <point x="271.243297086095" y="382.0"/>
      <point x="230.70163326237224" y="444.0"/>
      <point x="251.8945135040426" y="529.0" type="curve"/>
      <point x="274.33403375992884" y="619.0"/>
      <point x="379.03094598454015" y="698.0"/>
      <point x="506.03094598454015" y="698.0" type="curve" smooth="yes"/>
      <point x="623.0309459845402" y="698.0"/>
      <point x="692.5806737741448" y="624.0"/>
      <point x="669.6424975125722" y="532.0" type="curve"/>
      <point x="649.9455852879609" y="453.0"/>
      <point x="584.9912810946246" y="385.0"/>
      <point x="462.0100970150155" y="357.0" type="curve"/>
      <point x="428.4926250889382" y="383.0" type="line"/>
      <point x="540.7231371713905" y="412.0"/>
      <point x="597.1841613362949" y="470.0"/>
      <point x="610.8972014926699" y="525.0" type="curve"/>
      <point x="626.106209666104" y="586.0"/>
      <point x="581.5672338310084" y="644.0"/>
      <point x="492.56723383100837" y="644.0" type="curve" smooth="yes"/>
      <point x="394.56723383100837" y="644.0"/>
      <point x="322.3555376689471" y="587.0"/>
      <point x="308.393169509729" y="531.0" type="curve"/>
      <point x="294.18147334766763" y="474.0"/>
      <point x="322.46305721403814" y="427.0"/>
      <point x="437.24060909746777" y="386.0" type="curve" smooth="yes"/>
      <point x="588.776896943936" y="332.0"/>
      <point x="626.5759527363838" y="259.0"/>
      <point x="604.6350884861839" y="171.0" type="curve" smooth="yes"/>
      <point x="580.2009442075522" y="73.0"/>
      <point x="476.0053759772546" y="-8.0"/>
      <point x="324.0053759772546" y="-8.0" type="curve" smooth="yes"/>
      <point x="184.00537597725454" y="-8.0"/>
      <point x="114.45564818764993" y="66.0"/>
    </contour>
  </outline>
</glyph>
<glyph name="greater" format="1">
  <advance width="660"/>
  <unicode hex="003E"/>
  <outline>
    <contour>
      <point x="165.45833617627721" y="62.0" type="line"/>
      <point x="615.8225927505997" y="264.0" type="line"/>
      <point x="625.2970568586405" y="302.0" type="line"/>
      <point x="589.5463848614837" y="303.0" type="line"/>
      <point x="180.66734434971124" y="123.0" type="line"/>
    </contour>
    <contour>
      <point x="263.4442412936472" y="455.0" type="line"/>
      <point x="582.3158727790315" y="274.0" type="line"/>
      <point x="617.3185607676588" y="270.0" type="line"/>
      <point x="628.7876488984451" y="316.0" type="line"/>
      <point x="279.15190547276757" y="518.0" type="line"/>
    </contour>
  </outline>
</glyph>
<glyph name="question" format="1">
  <advance width="498"/>
  <unicode hex="003F"/>
  <outline>
    <contour>
      <point x="181.1062096661039" y="586.0" type="curve"/>
      <point x="214.62905756943576" y="552.0" type="line"/>
      <point x="266.5887377400266" y="612.0"/>
      <point x="326.32059381679244" y="639.0"/>
      <point x="386.32059381679244" y="639.0" type="curve"/>
      <point x="467.32059381679244" y="639.0"/>
      <point x="502.8622576405153" y="577.0"/>
      <point x="487.65324946708125" y="516.0" type="curve"/>
      <point x="474.937521322079" y="465.0"/>
      <point x="441.2110412225677" y="430.0"/>
      <point x="363.24060909746777" y="386.0" type="curve" smooth="yes"/>
      <point x="306.26211300648595" y="354.0"/>
      <point x="283.2863049041315" y="318.0"/>
      <point x="272.5732647477565" y="263.0" type="curve" smooth="yes"/>
      <point x="255.87904051177253" y="180.0" type="line"/>
      <point x="306.87904051177253" y="180.0" type="line"/>
      <point x="328.3293127221679" y="254.0" type="line" smooth="yes"/>
      <point x="340.30243283589516" y="294.0"/>
      <point x="355.034288912661" y="321.0"/>
      <point x="392.27017697236784" y="342.0" type="curve" smooth="yes"/>
      <point x="485.4845611230564" y="395.0"/>
      <point x="535.4469292822745" y="451.0"/>
      <point x="551.6532494670812" y="516.0" type="curve"/>
      <point x="576.3367217485561" y="615.0"/>
      <point x="515.0309459845402" y="698.0"/>
      <point x="406.03094598454015" y="698.0" type="curve"/>
      <point x="326.03094598454015" y="698.0"/>
      <point x="248.55648187649928" y="660.0"/>
    </contour>
    <component base="period" xOffset="127"/>
  </outline>
</glyph>
<glyph name="E" format="1">
  <advance width="596"/>
  <unicode hex="0045"/>
  <outline>
    <contour>
      <point x="110.0" y="0.0" type="line"/>
      <point x="172.0" y="0.0" type="line"/>
      <point x="344.03632196179467" y="690.0" type="line"/>
      <point x="282.03632196179467" y="690.0" type="line"/>
    </contour>
    <contour>
      <point x="140.0" y="0.0" type="line"/>
      <point x="526.0" y="0.0" type="line"/>
      <point x="539.4637121535318" y="54.0" type="line"/>
      <point x="153.46371215353176" y="54.0" type="line"/>
    </contour>
    <contour>
      <point x="220.28361691550418" y="322.0" type="line"/>
      <point x="555.2836169155041" y="322.0" type="line"/>
      <point x="568.2486730633495" y="374.0" type="line"/>
      <point x="233.2486730633496" y="374.0" type="line"/>
    </contour>
    <contour>
      <point x="298.57260980826294" y="636.0" type="line"/>
      <point x="679.572609808263" y="636.0" type="line"/>
      <point x="693.0363219617947" y="690.0" type="line"/>
      <point x="312.03632196179467" y="690.0" type="line"/>
    </contour>
    <contour>
      <point x="483.03632196179467" y="690.0" type="move" name="top"/>
    </contour>
    <contour>
      <point x="311.0" y="0.0" type="move" name="bottom"/>
    </contour>
  </outline>
</glyph>
<glyph name="H" format="1">
  <advance width="716"/>
  <unicode hex="0048"/>
  <outline>
    <contour>
      <point x="110.0" y="0.0" type="line"/>
      <point x="172.0" y="0.0" type="line"/>
      <point x="344.03632196179467" y="690.0" type="line"/>
      <point x="282.03632196179467" y="690.0" type="line"/>
    </contour>
    <contour>
      <point x="220.034288912661" y="321.0" type="line"/>
      <point x="656.034288912661" y="321.0" type="line"/>
      <point x="669.4980010661927" y="375.0" type="line"/>
      <point x="233.49800106619278" y="375.0" type="line"/>
    </contour>
    <contour>
      <point x="544.0" y="0.0" type="line"/>
      <point x="606.0" y="0.0" type="line"/>
      <point x="778.0363219617947" y="690.0" type="line"/>
      <point x="716.0363219617947" y="690.0" type="line"/>
    </contour>
    <contour>
      <point x="530.0363219617947" y="690.0" type="move" name="top"/>
    </contour>
  </outline>
</glyph>
<glyph name="I" format="1">
  <advance width="432"/>
  <unicode hex="0049"/>
  <outline>
    <contour>
      <point x="80.0" y="0.0" type="line"/>
      <point x="352.0" y="0.0" type="line"/>
      <point x="364.46640014215905" y="50.0" type="line"/>
      <point x="92.46640014215903" y="50.0" type="line"/>
    </contour>
    <contour>
      <point x="239.56992181963565" y="640.0" type="line"/>
      <point x="511.5699218196356" y="640.0" type="line"/>
      <point x="524.0363219617947" y="690.0" type="line"/>
      <point x="252.0363219617947" y="690.0" type="line"/>
    </contour>
    <contour>
      <point x="185.0" y="0.0" type="line"/>
      <point x="247.0" y="0.0" type="line"/>
      <point x="419.03632196179467" y="690.0" type="line"/>
      <point x="357.03632196179467" y="690.0" type="line"/>
    </contour>
    <contour>
      <point x="388.03632196179467" y="690.0" type="move" name="top"/>
    </contour>
    <contour>
      <point x="216.0" y="0.0" type="move" name="bottom"/>
    </contour>
  </outline>
</glyph>
<glyph name="K" format="1">
  <advance width="615"/>
  <unicode hex="004B"/>
  <outline>
    <contour>
      <point x="110.0" y="0.0" type="line"/>
      <point x="172.0" y="0.0" type="line"/>
      <point x="344.03632196179467" y="690.0" type="line"/>
      <point x="282.03632196179467" y="690.0" type="line"/>
    </contour>
    <contour>
      <point x="219.85484861412704" y="216.0" type="line"/>
      <point x="745.0363219617947" y="690.0" type="line"/>
      <point x="670.0363219617947" y="690.0" type="line"/>
      <point x="240.54907285011103" y="299.0" type="line"/>
    </contour>
    <contour>
      <point x="348.7661449894269" y="348.0" type="line"/>
      <point x="512.0" y="0.0" type="line"/>
      <point x="590.0" y="0.0" type="line"/>
      <point x="399.7365771145268" y="392.0" type="line"/>
    </contour>
  </outline>
</glyph>
<glyph name="P" format="1">
  <advance width="616"/>
  <unicode hex="0050"/>
  <outline>
    <contour>
      <point x="110.0" y="0.0" type="line"/>
      <point x="172.0" y="0.0" type="line"/>
      <point x="344.03632196179467" y="690.0" type="line"/>
      <point x="282.03632196179467" y="690.0" type="line"/>
    </contour>
    <contour>
      <point x="202.33200071079517" y="250.0" type="line"/>
      <point x="381.33200071079517" y="250.0" type="line" smooth="yes"/>
      <point x="518.3320007107952" y="250.0"/>
      <point x="643.776896943936" y="332.0"/>
      <point x="678.1841613362949" y="470.0" type="curve" smooth="yes"/>
      <point x="712.5914257286538" y="608.0"/>
      <point x="628.0363219617947" y="690.0"/>
      <point x="491.03632196179467" y="690.0" type="curve" smooth="yes"/>
      <point x="312.03632196179467" y="690.0" type="line"/>
      <point x="298.57260980826294" y="636.0" type="line"/>
      <point x="472.57260980826294" y="636.0" type="line" smooth="yes"/>
      <point x="582.5622471139625" y="636.0"/>
      <point x="640.8622576405153" y="577.0"/>
      <point x="614.1841613362949" y="470.0" type="curve" smooth="yes"/>
      <point x="587.5060650320746" y="363.0"/>
      <point x="499.7853501700264" y="304.0"/>
      <point x="389.7957128643269" y="304.0" type="curve" smooth="yes"/>
      <point x="215.79571286432693" y="304.0" type="line"/>
    </contour>
  </outline>
</glyph>
<glyph name="R" format="1">
  <advance width="626"/>
  <unicode hex="0052"/>
  <outline>
    <contour>
      <point x="110.0" y="0.0" type="line"/>
      <point x="172.0" y="0.0" type="line"/>
      <point x="344.03632196179467" y="690.0" type="line"/>
      <point x="282.03632196179467" y="690.0" type="line"/>
    </contour>
    <contour>
      <point x="208.81452878471788" y="276.0" type="line"/>
      <point x="372.8145287847179" y="276.0" type="line" smooth="yes"/>
      <point x="507.8145287847179" y="276.0"/>
      <point x="629.262113006486" y="354.0"/>
      <point x="661.4254253732563" y="483.0" type="curve" smooth="yes"/>
      <point x="693.5887377400265" y="612.0"/>
      <point x="611.0363219617947" y="690.0"/>
      <point x="476.03632196179467" y="690.0" type="curve" smooth="yes"/>
      <point x="312.03632196179467" y="690.0" type="line"/>
      <point x="298.57260980826294" y="636.0" type="line"/>
      <point x="457.57260980826294" y="636.0" type="line" smooth="yes"/>
      <point x="565.572609808263" y="636.0"/>
      <point x="621.859569651888" y="581.0"/>
      <point x="597.4254253732563" y="483.0" type="curve" smooth="yes"/>
      <point x="572.9912810946246" y="385.0"/>
      <point x="489.2782409382496" y="330.0"/>
      <point x="381.2782409382496" y="330.0" type="curve" smooth="yes"/>
      <point x="222.27824093824964" y="330.0" type="line"/>
    </contour>
    <contour>
      <point x="385.3051208245224" y="290.0" type="line"/>
      <point x="498.0" y="0.0" type="line"/>
      <point x="571.0" y="0.0" type="line"/>
      <point x="452.3051208245224" y="290.0" type="line"/>
    </contour>
    <contour>
      <point x="461.03632196179467" y="690.0" type="move" name="top"/>
    </contour>
  </outline>
</glyph>
<glyph name="S" format="1">
  <advance width="615"/>
  <unicode hex="0053"/>
  <outline>
    <contour>
      <point x="81.9408642501999" y="88.0" type="line"/>
      <point x="127.4825280739227" y="26.0"/>
      <point x="200.00537597725454" y="-8.0"/>
      <point x="303.0053759772546" y="-8.0" type="curve"/>
      <point x="450.0053759772546" y="-8.0"/>
      <point x="561.9543041933363" y="68.0"/>
      <point x="589.131056503243" y="177.0" type="curve"/>
      <point x="611.3212487562861" y="266.0"/>
      <point x="563.7742089553087" y="336.0"/>
      <point x="415.48993710031095" y="387.0" type="curve" smooth="yes"/>
      <point x="297.71238521688133" y="428.0"/>
      <point x="271.1868493249222" y="466.0"/>
      <point x="285.1492174841403" y="522.0" type="curve"/>
      <point x="301.60486567179026" y="588.0"/>
      <point x="377.56723383100837" y="644.0"/>
      <point x="479.56723383100837" y="644.0" type="curve"/>
      <point x="552.5672338310084" y="644.0"/>
      <point x="596.5860497513993" y="616.0"/>
      <point x="626.6129296376721" y="576.0" type="curve"/>
      <point x="676.0820177684584" y="622.0" type="line"/>
      <point x="637.0497619049311" y="670.0"/>
      <point x="580.0309459845402" y="698.0"/>
      <point x="493.03094598454015" y="698.0" type="curve"/>
      <point x="358.03094598454015" y="698.0"/>
      <point x="249.33672174855613" y="615.0"/>
      <point x="225.40123347561078" y="519.0" type="curve"/>
      <point x="204.95633724246997" y="437.0"/>
      <point x="243.2459850747223" y="378.0"/>
      <point x="377.5275689410928" y="331.0" type="curve" smooth="yes"/>
      <point x="517.3104968017769" y="282.0"/>
      <point x="542.0934246624611" y="233.0"/>
      <point x="526.8844164890271" y="172.0" type="curve"/>
      <point x="509.1821282871613" y="101.0"/>
      <point x="432.4690881307863" y="46.0"/>
      <point x="316.4690881307863" y="46.0" type="curve"/>
      <point x="227.4690881307863" y="46.0"/>
      <point x="170.4475842217681" y="78.0"/>
      <point x="132.66196837245667" y="131.0" type="curve"/>
    </contour>
    <contour>
      <point x="491.03632196179467" y="690.0" type="move" name="top"/>
    </contour>
    <contour>
      <point x="305.0" y="0.0" type="move" name="bottom"/>
    </contour>
  </outline>
</glyph>
<glyph name="U" format="1">
  <advance width="692"/>
  <unicode hex="0055"/>
  <outline>
    <contour>
      <point x="161.08536069657927" y="245.0" type="line" smooth="yes"/>
      <point x="119.4475842217681" y="78.0"/>
      <point x="205.00537597725454" y="-8.0"/>
      <point x="344.0053759772546" y="-8.0" type="curve" smooth="yes"/>
      <point x="483.0053759772546" y="-8.0"/>
      <point x="611.4475842217681" y="78.0"/>
      <point x="653.0853606965793" y="245.0" type="curve" smooth="yes"/>
      <point x="764.0363219617947" y="690.0" type="line"/>
      <point x="702.0363219617947" y="690.0" type="line"/>
      <point x="592.3320007107952" y="250.0" type="line" smooth="yes"/>
      <point x="558.922048329809" y="116.0"/>
      <point x="463.21707213931586" y="49.0"/>
      <point x="358.21707213931586" y="49.0" type="curve" smooth="yes"/>
      <point x="253.21707213931586" y="49.0"/>
      <point x="190.92204832980897" y="116.0"/>
      <point x="224.33200071079517" y="250.0" type="curve" smooth="yes"/>
      <point x="334.03632196179467" y="690.0" type="line"/>
      <point x="272.03632196179467" y="690.0" type="line"/>
    </contour>
    <contour>
      <point x="518.0363219617947" y="690.0" type="move" name="top"/>
    </contour>
    <contour>
      <point x="346.0" y="0.0" type="move" name="bottom"/>
    </contour>
  </outline>
</glyph>
<glyph name="Y" format="1">
  <advance width="572"/>
  <unicode hex="0059"/>
  <outline>
    <contour>
      <point x="187.0363219617947" y="690.0" type="line"/>
      <point x="329.81184079609056" y="280.0" type="line"/>
      <point x="373.81184079609056" y="280.0" type="line"/>
      <point x="382.034288912661" y="321.0" type="line"/>
      <point x="259.03632196179467" y="690.0" type="line"/>
    </contour>
    <contour>
      <point x="255.0" y="0.0" type="line"/>
      <point x="317.0" y="0.0" type="line"/>
      <point x="394.291680881386" y="310.0" type="line"/>
      <point x="332.291680881386" y="310.0" type="line"/>
    </contour>
    <contour>
      <point x="350.034288912661" y="321.0" type="line"/>
      <point x="341.81184079609056" y="280.0" type="line"/>
      <point x="381.81184079609056" y="280.0" type="line"/>
      <point x="729.0363219617947" y="690.0" type="line"/>
      <point x="661.0363219617947" y="690.0" type="line"/>
    </contour>
    <contour>
      <point x="458.03632196179467" y="690.0" type="move" name="top"/>
    </contour>
  </outline>
</glyph>
<glyph name="g" format="1">
  <advance width="556"/>
  <unicode hex="0067"/>
  <outline>
    <contour>
      <point x="118.57864072501108" y="255.0" type="curve" smooth="yes"/>
      <point x="76.5930362956162" y="86.60493827160494"/>
      <point x="141.74529601990227" y="7.0"/>
      <point x="244.74529601990227" y="7.0" type="curve" smooth="yes"/>
      <point x="309.74529601990224" y="7.0"/>
      <point x="389.21707213931586" y="49.0"/>
      <point x="441.9301122956908" y="104.0" type="curve"/>
      <point x="453.64852842932027" y="151.0" type="line"/>
      <point x="396.6475737934717" y="94.8452380952381"/>
      <point x="327.4583361762772" y="62.0"/>
      <point x="266.4583361762772" y="62.0" type="curve" smooth="yes"/>
      <point x="195.45833617627721" y="62.0"/>
      <point x="145.52663644033026" y="118.42487046632124"/>
      <point x="180.82528073922697" y="260.0" type="curve" smooth="yes"/>
      <point x="217.82508370143398" y="408.3981042654028"/>
      <point x="294.1868493249222" y="466.0"/>
      <point x="379.1868493249222" y="466.0" type="curve" smooth="yes"/>
      <point x="457.1868493249222" y="466.0"/>
      <point x="503.97246517423366" y="413.0"/>
      <point x="478.291680881386" y="310.0" type="curve"/>
      <point x="508.7849609098178" y="320.0" type="line"/>
      <point x="540.6989452737449" y="448.0"/>
      <point x="483.15190547276757" y="518.0"/>
      <point x="388.15190547276757" y="518.0" type="curve" smooth="yes"/>
      <point x="277.15190547276757" y="518.0"/>
      <point x="164.33312023184118" y="438.51119402985074"/>
    </contour>
    <contour>
      <point x="48.348783582052434" y="-147.0" type="line"/>
      <point x="89.36759950244337" y="-175.0"/>
      <point x="146.87969545126612" y="-193.0"/>
      <point x="208.87969545126612" y="-193.0" type="curve" smooth="yes"/>
      <point x="323.8796954512661" y="-193.0"/>
      <point x="430.87218509906415" y="-120.8360655737705"/>
      <point x="465.9865600568636" y="20.0" type="curve" smooth="yes"/>
      <point x="557.7392651031541" y="388.0" type="line"/>
      <point x="565.967089196979" y="421.0"/>
      <point x="572.2029772566859" y="442.0"/>
      <point x="583.4334893391381" y="471.0" type="curve" smooth="yes"/>
      <point x="599.1572814500222" y="510.0" type="line"/>
      <point x="544.1572814500222" y="510.0" type="line"/>
      <point x="502.47649715717455" y="407.0" type="line"/>
      <point x="498.2379211088405" y="390.0" type="line"/>
      <point x="407.2332000710795" y="25.0" type="line" smooth="yes"/>
      <point x="377.89872948092847" y="-92.65413533834585"/>
      <point x="302.5927356076411" y="-138.0"/>
      <point x="211.59273560764106" y="-138.0" type="curve" smooth="yes"/>
      <point x="160.59273560764106" y="-138.0"/>
      <point x="120.0833276474456" y="-124.0"/>
      <point x="83.81518372421147" y="-97.0" type="curve"/>
    </contour>
    <contour>
      <point x="396.1572814500222" y="510.0" type="move" name="top"/>
    </contour>
  </outline>
</glyph>
<glyph name="u" format="1">
  <advance width="569"/>
  <unicode hex="0075"/>
  <outline>
    <contour>
      <point x="136.12568052598843" y="185.0" type="line" smooth="yes"/>
      <point x="104.2116961620613" y="57.0"/>
      <point x="161.00537597725454" y="-8.0"/>
      <point x="250.00537597725454" y="-8.0" type="curve" smooth="yes"/>
      <point x="319.0053759772546" y="-8.0"/>
      <point x="397.7264800995113" y="35.0"/>
      <point x="452.1875042644158" y="93.0" type="curve"/>
      <point x="464.903232409418" y="144.0" type="line"/>
      <point x="405.694224235984" y="83.0"/>
      <point x="336.7184161336295" y="47.0"/>
      <point x="271.7184161336295" y="47.0" type="curve" smooth="yes"/>
      <point x="210.7184161336295" y="47.0"/>
      <point x="171.69153624735674" y="87.0"/>
      <point x="197.37232054020433" y="190.0" type="curve" smooth="yes"/>
      <point x="277.1572814500222" y="510.0" type="line"/>
      <point x="217.15728145002217" y="510.0" type="line"/>
    </contour>
    <contour>
      <point x="430.0" y="0.0" type="line"/>
      <point x="485.0" y="0.0" type="line"/>
      <point x="488.72379211088406" y="39.0" type="line" smooth="yes"/>
      <point x="491.95430419333627" y="68.0"/>
      <point x="496.1901922530431" y="89.0"/>
      <point x="504.41801634686806" y="122.0" type="curve" smooth="yes"/>
      <point x="601.1572814500222" y="510.0" type="line"/>
      <point x="541.1572814500222" y="510.0" type="line"/>
      <point x="443.9193603411817" y="120.0" type="line"/>
      <point x="439.6807842928476" y="103.0" type="line"/>
    </contour>
    <contour>
      <point x="408.1572814500222" y="510.0" type="move" name="top"/>
    </contour>
    <contour>
      <point x="281.0" y="0.0" type="move" name="bottom"/>
    </contour>
  </outline>
</glyph>
<glyph name="v" format="1">
  <advance width="466"/>
  <unicode hex="0076"/>
  <outline>
    <contour>
      <point x="142.15728145002217" y="510.0" type="line"/>
      <point x="207.0" y="0.0" type="line"/>
      <point x="253.0" y="0.0" type="line"/>
      <point x="260.4744641080409" y="38.0" type="line"/>
      <point x="207.15728145002217" y="510.0" type="line"/>
    </contour>
    <contour>
      <point x="228.47446410804088" y="38.0" type="line"/>
      <point x="221.0" y="0.0" type="line"/>
      <point x="259.0" y="0.0" type="line"/>
      <point x="578.1572814500222" y="510.0" type="line"/>
      <point x="516.1572814500222" y="510.0" type="line"/>
    </contour>
  </outline>
</glyph>
<glyph name="x" format="1">
  <advance width="500.0"/>
  <unicode hex="0078"/>
  <outline>
    <contour>
      <point x="35.0" y="0.0" type="line"/>
      <point x="103.0" y="0.0" type="line"/>
      <point x="312.597456645402" y="227.0" type="line"/>
      <point x="336.082672707952" y="249.0" type="line"/>
      <point x="582.1572814500222" y="510.0" type="line"/>
      <point x="514.1572814500222" y="510.0" type="line"/>
      <point x="318.29974484726785" y="298.0" type="line"/>
      <point x="294.8145287847179" y="276.0" type="line"/>
    </contour>
    <contour>
      <point x="172.15728145002217" y="510.0" type="line"/>
      <point x="291.340064676677" y="238.0" type="line"/>
      <point x="395.0" y="0.0" type="line"/>
      <point x="465.0" y="0.0" type="line"/>
      <point x="339.55713681599286" y="287.0" type="line"/>
      <point x="242.15728145002217" y="510.0" type="line"/>
    </contour>
  </outline>
</glyph>
<glyph name="braceleft" format="1">
  <advance width="358"/>
  <unicode hex="007B"/>
  <outline>
    <contour>
      <point x="142.58132871363836" y="251.0" type="line"/>
      <point x="232.59745664540202" y="227.0"/>
      <point x="262.6270245203021" y="183.0"/>
      <point x="251.15793638951575" y="137.0" type="curve" smooth="yes"/>
      <point x="232.45833617627721" y="62.0"/>
      <point x="137.24126403696135" y="13.0"/>
      <point x="113.80443176970236" y="-81.0" type="curve" smooth="yes"/>
      <point x="93.85819154224791" y="-161.0"/>
      <point x="134.14515138587296" y="-216.0"/>
      <point x="239.91195131479344" y="-241.0" type="curve"/>
      <point x="264.38103944557975" y="-195.0" type="line"/>
      <point x="171.611551528032" y="-166.0"/>
      <point x="158.33534363891604" y="-127.0"/>
      <point x="169.5551037668592" y="-82.0" type="curve" smooth="yes"/>
      <point x="188.00537597725454" y="-8.0"/>
      <point x="280.21707213931586" y="49.0"/>
      <point x="301.6592803838294" y="135.0" type="curve"/>
      <point x="315.8709765458907" y="192.0"/>
      <point x="295.8387206823634" y="240.0"/>
      <point x="218.81990476197242" y="268.0" type="curve"/>
      <point x="309.5517608387383" y="295.0"/>
      <point x="353.76883297805415" y="344.0"/>
      <point x="367.98052914011544" y="401.0" type="curve"/>
      <point x="389.422737384629" y="487.0"/>
      <point x="325.3851055438471" y="543.0"/>
      <point x="343.8353777542425" y="617.0" type="curve" smooth="yes"/>
      <point x="355.0551378821856" y="662.0"/>
      <point x="387.7789299930697" y="701.0"/>
      <point x="495.0094420755219" y="730.0" type="curve"/>
      <point x="493.4785302063082" y="776.0" type="line"/>
      <point x="373.99600213238557" y="750.0"/>
      <point x="307.5322899788538" y="696.0"/>
      <point x="287.5860497513993" y="616.0" type="curve" smooth="yes"/>
      <point x="264.1492174841403" y="522.0"/>
      <point x="335.18147334766763" y="474.0"/>
      <point x="316.4818731344291" y="399.0" type="curve" smooth="yes"/>
      <point x="305.01278500364276" y="353.0"/>
      <point x="253.04235287854283" y="309.0"/>
      <point x="151.0584808103065" y="285.0" type="curve"/>
    </contour>
  </outline>
</glyph>
<glyph name="bar" format="1">
  <advance width="276"/>
  <unicode hex="007C"/>
  <outline>
    <contour>
      <point x="56.39447938871615" y="-215.0" type="line"/>
      <point x="112.39447938871615" y="-215.0" type="line"/>
      <point x="345.5161620470901" y="720.0" type="line"/>
      <point x="289.5161620470901" y="720.0" type="line"/>
    </contour>
  </outline>
</glyph>
